<?xml version="1.0" encoding="utf-8"?>
<!-- Generator: Adobe Illustrator 25.2.3, SVG Export Plug-In . SVG Version: 6.00 Build 0)  -->
<svg version="1.1" id="Capa_1" xmlns="http://www.w3.org/2000/svg" xmlns:xlink="http://www.w3.org/1999/xlink" x="0px" y="0px"
	 viewBox="0 0 1417.3 790.8" style="enable-background:new 0 0 1417.3 790.8;" xml:space="preserve">
<style type="text/css">
	.st0{opacity:0.92;fill:#464544;stroke:#231815;stroke-width:3;stroke-miterlimit:10;enable-background:new    ;}
	.st1{fill:#646461;stroke:#231815;stroke-width:3;stroke-miterlimit:10;}
	.st2{fill:#403F3E;}
	.st3{fill:#F0919B;}
	.st4{fill:#7FCCF2;}
	.st5{fill:#FFFFFF;}
	.st6{opacity:0.92;enable-background:new    ;}
	.st7{fill:#7B7B7B;stroke:#000000;stroke-miterlimit:10;}
</style>
<path class="st0" d="M774.2,259.4H643.1c-8.3,0-15.1-6.8-15.1-15.1v-51.6c0-8.3,6.8-15.1,15.1-15.1h131.1c8.3,0,15.1,6.8,15.1,15.1
	v51.6C789.3,252.7,782.5,259.4,774.2,259.4z"/>
<path class="st1" d="M261.4,790.8c-9.7,0-19.1-1-28-2.9c-27.8-6.5-49.4-23.1-64.1-49.4l0,0c-15.6-30.3-21.9-72.6-19.2-129.3
	c2.7-51,13.6-110,30.8-166.2v-0.1c15.1-51.9,37.4-101.4,62.7-139.3c26.9-39.1,55-66.8,85.9-84.7c30.5-17.7,64.6-26.3,104.3-26.3
	c42.3,0,87.4,9.4,135.2,19.3l2.3,0.5c3.4,0.7,10.9,2.2,10.9,2.2c38.1,7.6,77.5,15.5,118.8,18.6c0.3,0,0.6,0,0.9,0h13.6
	c0.3,0,0.6,0,0.9,0c41-3.2,80.4-11,118.4-18.6l0.3-0.1c3.7-0.7,7.3-1.5,11-2.2c0.1,0,0.1,0,0.2,0c46-9.9,93.6-20.2,137.3-20.2
	c39.6,0,73.6,8.5,104.1,26.1c30.9,17.8,59,45.4,86,84.3c23.3,35.1,44.4,82,62.7,139.5c17.1,56.2,28.1,115.2,30.8,166.2
	c2.7,57.8-3.5,100-19.1,129.2c0,0,0,0.1-0.1,0.1c-13.6,26.4-35.1,43.3-64,50.4c-8.1,1.8-16.9,2.7-26.1,2.7
	c-18.5,0-38.9-3.6-60.7-10.6c-49.9-16.8-109.9-51.9-178.3-104.1l0,0C897.6,659,866,645.2,827.7,636c-35.8-8.6-76.9-13.1-119-13.1
	c-42,0-83.2,4.5-119,13.1c-38.3,9.2-69.9,23-91.2,39.9c-68.4,52.3-128.4,87.3-178.3,104.1c-0.1,0-0.1,0-0.2,0.1
	C300,787.2,280.3,790.8,261.4,790.8z"/>
<g>
	<circle class="st2" cx="973.5" cy="427.8" r="173"/>
	<circle class="st3" cx="1071" cy="427.8" r="44.1"/>
	<circle class="st3" cx="973.5" cy="330.3" r="44.1"/>
	<circle class="st4" cx="876" cy="427.8" r="44.1"/>
	<circle class="st4" cx="973.5" cy="525.3" r="44.1"/>
</g>
<g>
	<g>
		<path class="st2" d="M572.9,472.8H310c-10.8,0-19.5-8.8-19.5-19.5v-55.9c0-10.8,8.8-19.5,19.5-19.5h262.9
			c10.8,0,19.5,8.8,19.5,19.5v55.9C592.5,464.1,583.7,472.8,572.9,472.8z"/>
		<path class="st2" d="M394,556.8V293.9c0-10.8,8.8-19.5,19.5-19.5h55.9c10.8,0,19.5,8.8,19.5,19.5v262.9c0,10.8-8.8,19.5-19.5,19.5
			h-55.9C402.7,576.3,394,567.6,394,556.8z"/>
	</g>
	<path class="st5" d="M437.5,295.4l-23.7,51.3c-1.3,2.9,0.8,6.2,4,6.2h47.4c3.2,0,5.3-3.3,4-6.2l-23.8-51.3
		C443.9,292,439.1,292,437.5,295.4z"/>
	<path class="st5" d="M445.4,555.3l23.7-51.3c1.3-2.9-0.8-6.2-4-6.2h-47.4c-3.2,0-5.3,3.3-4,6.2l23.7,51.3
		C439.1,558.7,443.9,558.7,445.4,555.3z"/>
	<path class="st5" d="M310.6,429.3l51.3,23.7c2.9,1.3,6.2-0.8,6.2-4v-47.4c0-3.2-3.3-5.3-6.2-4l-51.3,23.8
		C307.2,422.9,307.2,427.7,310.6,429.3z"/>
	<path class="st5" d="M569.4,423.8l-51.3-23.7c-2.9-1.3-6.2,0.8-6.2,4v47.4c0,3.2,3.3,5.3,6.2,4l51.3-23.7
		C572.8,430.2,572.8,425.4,569.4,423.8z"/>
	<circle class="st5" cx="441.5" cy="425.3" r="28.7"/>
</g>
<rect x="693.5" y="0" class="st6" width="30.2" height="177.6"/>
<circle class="st7" cx="684.6" cy="204.4" r="12.2"/>
<circle class="st7" cx="733.5" cy="204.4" r="12.2"/>
</svg>
